<?xml version="1.0" encoding="UTF-8"?>
<svg id="Layer_2" data-name="Layer 2" xmlns="http://www.w3.org/2000/svg" viewBox="0 0 709.64 133.98">
  <defs>
    <style>
      .cls-1 {
        fill: #eac8ae;
      }

      .cls-2 {
        fill: #14355b;
      }

      .cls-3 {
        fill: none;
        stroke: #ed2024;
        stroke-miterlimit: 10;
      }

      .cls-4 {
        fill: #799bd0;
      }
    </style>
  </defs>
  <g id="Layer_1-2" data-name="Layer 1">
    <g>
      <g>
        <path class="cls-1" d="M57.67,.05V133.98H11.07V46.96c0-.13,0-.26,0-.39C11.29,22.24,31.45,2.31,57.19,.06c.16,0,.32,0,.48,0Z"/>
        <path class="cls-3" d="M11.08,46.57c0,.13,0,.26,0,.39v-.39h0Z"/>
        <path class="cls-4" d="M162.09,27.45l-49.22,15.62-46.63,14.8-8.57,2.72-38.29,12.15-8.3,2.63-11.07,3.51c1.34-1.98,2.6-4.02,3.82-6.08,2.03-3.43,4.5-7.26,5.17-11.24,.91-5.48-1.67-11.94-5.25-16.1,0,0,2.08,.61,7.34,1.11,5.34,.51,13.97,.89,27.02,.39,5.67-.22,12.32-.79,19.57-1.61,2.78-.31,5.64-.66,8.57-1.04,14.63-1.9,30.83-4.55,45.68-7.18,27.37-4.86,50.17-9.68,50.17-9.68Z"/>
        <path class="cls-1" d="M113.03,46.96c0,24.72-20.6,44.99-46.8,46.96V0c22.62,1.7,41.07,17.05,45.68,37.12,.45,1.94,.77,3.93,.94,5.95,.11,1.28,.17,2.58,.17,3.89Z"/>
      </g>
      <g>
        <path class="cls-2" d="M220.22,79.48h-13.75v20.92h-10.9V33.13h24.65c15.25,0,22.88,7.53,22.88,22.59,0,7.73-1.92,13.62-5.74,17.68-3.83,4.06-9.54,6.09-17.14,6.09Zm-13.75-9.43h13.65c7.86,0,11.78-4.78,11.78-14.34,0-4.58-.95-7.92-2.85-10.02-1.9-2.09-4.88-3.14-8.94-3.14h-13.65v27.5Z"/>
        <path class="cls-2" d="M288.17,66.42v22.39c.06,1.44,.44,2.5,1.13,3.19,.69,.69,1.75,1.13,3.19,1.33l-.29,8.15c-5.63,0-9.98-1.21-13.06-3.63-5.24,2.42-10.51,3.63-15.81,3.63-9.76,0-14.63-5.2-14.63-15.61,0-4.97,1.33-8.58,3.98-10.8,2.65-2.22,6.73-3.57,12.23-4.03l12.67-1.08v-3.54c0-2.62-.57-4.45-1.72-5.5-1.15-1.05-2.83-1.57-5.06-1.57-4.19,0-9.43,.26-15.71,.79l-3.14,.2-.39-7.56c7.13-1.7,13.7-2.55,19.69-2.55s10.31,1.29,12.96,3.88c2.65,2.59,3.98,6.69,3.98,12.32Zm-22,12.18c-4.52,.39-6.78,2.85-6.78,7.36s2,6.78,5.99,6.78c3.27,0,6.74-.52,10.41-1.57l1.77-.59v-13.06l-11.39,1.08Z"/>
        <path class="cls-2" d="M335.7,61.41c-7.73-1.05-13.32-1.57-16.79-1.57s-5.88,.41-7.22,1.23c-1.34,.82-2.01,2.11-2.01,3.88s.74,3.01,2.21,3.73c1.47,.72,4.94,1.56,10.41,2.5,5.47,.95,9.34,2.44,11.64,4.47,2.29,2.03,3.44,5.63,3.44,10.8s-1.65,8.97-4.96,11.39c-3.31,2.42-8.14,3.63-14.48,3.63-3.99,0-9.03-.56-15.12-1.67l-3.04-.49,.39-8.94c7.86,1.05,13.52,1.57,16.99,1.57s5.94-.42,7.41-1.28c1.47-.85,2.21-2.26,2.21-4.22s-.7-3.32-2.11-4.08c-1.41-.75-4.78-1.57-10.11-2.45-5.34-.88-9.25-2.27-11.74-4.17-2.49-1.9-3.73-5.37-3.73-10.41s1.72-8.8,5.16-11.29c3.44-2.49,7.84-3.73,13.21-3.73,4.19,0,9.33,.52,15.42,1.57l3.04,.59-.2,8.94Z"/>
        <path class="cls-2" d="M381.75,61.41c-7.73-1.05-13.32-1.57-16.79-1.57s-5.88,.41-7.22,1.23c-1.34,.82-2.01,2.11-2.01,3.88s.74,3.01,2.21,3.73c1.47,.72,4.94,1.56,10.41,2.5,5.47,.95,9.34,2.44,11.64,4.47,2.29,2.03,3.44,5.63,3.44,10.8s-1.65,8.97-4.96,11.39c-3.31,2.42-8.14,3.63-14.48,3.63-3.99,0-9.03-.56-15.12-1.67l-3.04-.49,.39-8.94c7.86,1.05,13.52,1.57,16.99,1.57s5.94-.42,7.41-1.28c1.47-.85,2.21-2.26,2.21-4.22s-.7-3.32-2.11-4.08c-1.41-.75-4.78-1.57-10.11-2.45-5.34-.88-9.25-2.27-11.74-4.17-2.49-1.9-3.73-5.37-3.73-10.41s1.72-8.8,5.16-11.29c3.44-2.49,7.84-3.73,13.21-3.73,4.19,0,9.33,.52,15.42,1.57l3.04,.59-.2,8.94Z"/>
        <path class="cls-2" d="M430.07,66.42v22.39c.06,1.44,.44,2.5,1.13,3.19,.69,.69,1.75,1.13,3.19,1.33l-.29,8.15c-5.63,0-9.98-1.21-13.06-3.63-5.24,2.42-10.51,3.63-15.81,3.63-9.76,0-14.63-5.2-14.63-15.61,0-4.97,1.33-8.58,3.98-10.8,2.65-2.22,6.73-3.57,12.23-4.03l12.67-1.08v-3.54c0-2.62-.57-4.45-1.72-5.5-1.15-1.05-2.83-1.57-5.06-1.57-4.19,0-9.43,.26-15.71,.79l-3.14,.2-.39-7.56c7.13-1.7,13.7-2.55,19.69-2.55s10.31,1.29,12.96,3.88c2.65,2.59,3.98,6.69,3.98,12.32Zm-22,12.18c-4.52,.39-6.78,2.85-6.78,7.36s2,6.78,5.99,6.78c3.27,0,6.74-.52,10.41-1.57l1.77-.59v-13.06l-11.39,1.08Z"/>
        <path class="cls-2" d="M486.43,107.07c0,10.74-7.76,16.1-23.27,16.1-7.46,0-13-1.02-16.6-3.04-3.6-2.03-5.4-5.73-5.4-11.1,0-2.42,.59-4.5,1.77-6.24s3.08-3.62,5.7-5.65c-2.16-1.44-3.24-3.83-3.24-7.17,0-1.31,.88-3.44,2.65-6.38l.88-1.47c-4.71-2.81-7.07-7.72-7.07-14.73,0-5.89,1.77-10.21,5.3-12.96,3.53-2.75,8.31-4.12,14.34-4.12,2.88,0,5.73,.33,8.54,.98l1.47,.29,15.22-.39v8.64l-8.15-.49c1.77,2.29,2.65,4.98,2.65,8.05,0,6.42-1.62,10.85-4.86,13.31-3.24,2.45-8.3,3.68-15.17,3.68-1.7,0-3.14-.13-4.32-.39-.92,2.23-1.38,3.94-1.38,5.16s.6,2.05,1.82,2.5c1.21,.46,4.14,.72,8.79,.79,7.79,.07,13.13,1.11,16.01,3.14,2.88,2.03,4.32,5.86,4.32,11.49Zm-34.76,.98c0,2.29,.92,3.93,2.75,4.91,1.83,.98,4.97,1.47,9.43,1.47,7.92,0,11.88-2.26,11.88-6.78,0-2.55-.7-4.17-2.11-4.86-1.41-.69-4.21-1.06-8.4-1.13l-9.62-.59c-1.44,1.18-2.45,2.27-3.04,3.29-.59,1.01-.88,2.24-.88,3.68Zm2.95-34.03c1.44,1.41,3.76,2.11,6.97,2.11s5.51-.7,6.92-2.11c1.41-1.41,2.11-3.62,2.11-6.63s-.72-5.22-2.16-6.63c-1.44-1.41-3.77-2.11-6.97-2.11-6.02,0-9.03,2.91-9.03,8.74,0,3.01,.72,5.22,2.16,6.63Z"/>
        <path class="cls-2" d="M530.04,91.56l2.75-.29,.2,7.95c-7.46,1.51-14.08,2.26-19.84,2.26-7.27,0-12.49-2-15.66-5.99-3.18-3.99-4.76-10.37-4.76-19.15,0-17.41,7.1-26.12,21.31-26.12s20.62,7.5,20.62,22.49l-.69,7.66h-30.44c.06,4.06,.95,7.04,2.65,8.94,1.7,1.9,4.88,2.85,9.53,2.85s9.43-.2,14.34-.59Zm-5.89-19.44c0-4.84-.77-8.23-2.31-10.16-1.54-1.93-4.14-2.9-7.81-2.9s-6.33,1.02-8,3.04c-1.67,2.03-2.54,5.37-2.6,10.02h20.72Z"/>
        <path class="cls-2" d="M541.13,51.3h10.51l7.76,39.97h1.96l9.33-38.99h11l9.33,38.99h1.96l7.66-39.97h10.61l-10.41,49.1h-16.99l-7.66-33.68-7.66,33.68h-16.99l-10.41-49.1Z"/>
        <path class="cls-2" d="M656.71,66.42v22.39c.06,1.44,.44,2.5,1.13,3.19,.69,.69,1.75,1.13,3.19,1.33l-.29,8.15c-5.63,0-9.98-1.21-13.06-3.63-5.24,2.42-10.51,3.63-15.81,3.63-9.76,0-14.63-5.2-14.63-15.61,0-4.97,1.33-8.58,3.98-10.8,2.65-2.22,6.73-3.57,12.23-4.03l12.67-1.08v-3.54c0-2.62-.57-4.45-1.72-5.5-1.15-1.05-2.83-1.57-5.06-1.57-4.19,0-9.43,.26-15.71,.79l-3.14,.2-.39-7.56c7.13-1.7,13.7-2.55,19.69-2.55s10.31,1.29,12.96,3.88c2.65,2.59,3.98,6.69,3.98,12.32Zm-22,12.18c-4.52,.39-6.78,2.85-6.78,7.36s2,6.78,5.99,6.78c3.27,0,6.74-.52,10.41-1.57l1.77-.59v-13.06l-11.39,1.08Z"/>
        <path class="cls-2" d="M665.06,51.3h10.51l10.41,39.97h2.65l10.41-39.97h10.61l-18.66,70.21h-10.51l5.89-21.11h-8.44l-12.86-49.1Z"/>
      </g>
    </g>
  </g>
</svg>